<svg width="60" height="60" viewBox="0 0 60 60" fill="none" xmlns="http://www.w3.org/2000/svg">
<path d="M37.4845 30L58.4339 9.05053C59.4282 8.05803 59.9875 6.71121 59.9887 5.30636C59.9899 3.9015 59.4331 2.5537 58.4406 1.55944C57.4481 0.565184 56.1012 0.00591953 54.6964 0.00467886C53.2915 0.00343819 51.9437 0.560323 50.9495 1.55283L30 22.5023L9.05053 1.55283C8.05627 0.558569 6.70777 0 5.30168 0C3.89559 0 2.54708 0.558569 1.55283 1.55283C0.558569 2.54708 0 3.89559 0 5.30168C0 6.70777 0.558569 8.05627 1.55283 9.05053L22.5023 30L1.55283 50.9495C0.558569 51.9437 0 53.2922 0 54.6983C0 56.1044 0.558569 57.4529 1.55283 58.4472C2.54708 59.4414 3.89559 60 5.30168 60C6.70777 60 8.05627 59.4414 9.05053 58.4472L30 37.4977L50.9495 58.4472C51.9437 59.4414 53.2922 60 54.6983 60C56.1044 60 57.4529 59.4414 58.4472 58.4472C59.4414 57.4529 60 56.1044 60 54.6983C60 53.2922 59.4414 51.9437 58.4472 50.9495L37.4845 30Z" fill="#F3F3F3"/>
</svg>
