<svg width="41" height="40" viewBox="0 0 41 40" fill="none" xmlns="http://www.w3.org/2000/svg">
<path d="M6.37936 35.6634L3.23749 0.422485H37.7625L34.6175 35.6581L20.4791 39.5778L6.37936 35.6634Z" fill="#1572B6"/>
<path d="M20.5003 36.5819L31.925 33.4144L34.6128 3.30374H20.5003V36.5819Z" fill="#33A9DC"/>
<path d="M20.5003 16.0716H26.2197L26.6147 11.6456H20.5003V7.32343H31.3384L31.2347 8.48311L30.1722 20.3937H20.5003V16.0716Z" fill="white"/>
<path d="M20.5259 27.2965L20.5069 27.3022L15.6934 26.0025L15.3856 22.5553H11.0475L11.6528 29.3419L20.5062 31.799L20.5259 31.7934V27.2965Z" fill="#EBEBEB"/>
<path d="M25.8522 20.2109L25.3315 25.9991L20.5109 27.3003V31.7972L29.3715 29.3416L29.4366 28.6112L30.1884 20.2109H25.8522Z" fill="white"/>
<path d="M20.515 7.32343V11.6456H10.075L9.98842 10.6744L9.79155 8.48311L9.68811 7.32343H20.515ZM20.5003 16.0722V20.3944H15.7475L15.6609 19.4231L15.4637 17.2319L15.3606 16.0722H20.5003Z" fill="#EBEBEB"/>
</svg>
