<svg width="320" height="264" viewBox="0 0 320 264" fill="none" xmlns="http://www.w3.org/2000/svg">
<path d="M194.459 7.48621H115.845L116.644 -2.28882e-05H195.258L194.459 7.48621Z" fill="#666666"/>
<path d="M194.459 17.9822H115.845L116.644 10.4864H195.258L194.459 17.9822Z" fill="#666666"/>
<path d="M194.459 28.4686H115.845L116.644 20.9729H195.258L194.459 28.4686Z" fill="#666666"/>
<path d="M194.459 38.9554H115.845L116.644 31.4691H195.258L194.459 38.9554Z" fill="#666666"/>
<path d="M194.459 49.4512H115.845L116.644 41.9555H195.258L194.459 49.4512Z" fill="#666666"/>
<path d="M194.459 59.9377H115.845L116.644 52.4419H195.258L194.459 59.9377Z" fill="#666666"/>
<path d="M194.459 70.4241H115.845L116.644 62.9379H195.258L194.459 70.4241Z" fill="#666666"/>
<path d="M194.459 80.9198H115.845L116.644 73.424H195.258L194.459 80.9198Z" fill="#666666"/>
<path d="M194.459 91.4065H115.845L116.644 83.9108H195.258L194.459 91.4065Z" fill="#666666"/>
<path d="M194.459 101.893H115.845L116.644 94.4067H195.258L194.459 101.893Z" fill="#666666"/>
<path d="M194.459 112.389H115.845L116.644 104.893H195.258L194.459 112.389Z" fill="#666666"/>
<path d="M277.587 7.48619H198.973L199.772 -4.57764e-05H278.376L277.587 7.48619Z" fill="#666666"/>
<path d="M277.587 17.9822H198.973L199.772 10.4864H278.376L277.587 17.9822Z" fill="#666666"/>
<path d="M277.587 28.4686H198.973L199.772 20.9729H278.376L277.587 28.4686Z" fill="#666666"/>
<path d="M277.587 38.9554H198.973L199.772 31.4691H278.376L277.587 38.9554Z" fill="#666666"/>
<path d="M277.587 49.4512H198.973L199.772 41.9555H278.376L277.587 49.4512Z" fill="#666666"/>
<path d="M277.587 59.9377H198.973L199.772 52.4419H278.376L277.587 59.9377Z" fill="#666666"/>
<path d="M277.587 70.4241H198.973L199.772 62.9379H278.376L277.587 70.4241Z" fill="#666666"/>
<path d="M277.587 80.9198H198.973L199.772 73.424H278.376L277.587 80.9198Z" fill="#666666"/>
<path d="M277.587 91.4065H198.973L199.772 83.9108H278.376L277.587 91.4065Z" fill="#666666"/>
<path d="M277.587 101.893H198.973L199.772 94.4067H278.376L277.587 101.893Z" fill="#666666"/>
<path d="M277.587 112.389H198.973L199.772 104.893H278.376L277.587 112.389Z" fill="#666666"/>
<path d="M24.5364 32.4691H55.9634V42.2222H24.5364C23.2729 42.2222 22.0611 41.7074 21.1676 40.7911C20.2742 39.8748 19.7722 38.632 19.7722 37.3361C19.7722 36.0403 20.2742 34.7975 21.1676 33.8812C22.0611 32.9649 23.2729 32.4501 24.5364 32.4501V32.4691Z" fill="#C70039"/>
<path d="M56.0006 20.2587H24.5364C23.2729 20.2587 22.0611 20.7735 21.1676 21.6898C20.2742 22.6061 19.7722 23.8489 19.7722 25.1448C19.7722 26.4407 20.2742 27.6834 21.1676 28.5998C22.0611 29.5161 23.2729 30.0308 24.5364 30.0308H55.9634L56.0006 20.2587Z" fill="#C70039"/>
<path d="M70.2834 9.02958H58.8512V41.7461H70.2834V9.02958Z" fill="#C70039"/>
<path d="M84.5668 9.02958H73.1345V41.7461H84.5668V9.02958Z" fill="#C70039"/>
<path d="M98.8594 9.02958H87.4272V41.7461H98.8594V9.02958Z" fill="#C70039"/>
<path d="M24.5364 32.4691H55.9634V42.2222H24.5364C23.2729 42.2222 22.0611 41.7074 21.1676 40.7911C20.2742 39.8748 19.7722 38.632 19.7722 37.3361C19.7722 36.0403 20.2742 34.7975 21.1676 33.8812C22.0611 32.9649 23.2729 32.4501 24.5364 32.4501V32.4691Z" fill="#C70039"/>
<path d="M56.0006 20.2587H24.5364C23.2729 20.2587 22.0611 20.7735 21.1676 21.6898C20.2742 22.6061 19.7722 23.8489 19.7722 25.1448C19.7722 26.4407 20.2742 27.6834 21.1676 28.5998C22.0611 29.5161 23.2729 30.0308 24.5364 30.0308H55.9634L56.0006 20.2587Z" fill="#C70039"/>
<path d="M70.2834 9.02958H58.8512V41.7461H70.2834V9.02958Z" fill="#C70039"/>
<path d="M84.5668 9.02958H73.1345V41.7461H84.5668V9.02958Z" fill="#C70039"/>
<path d="M98.8594 9.02958H87.4272V41.7461H98.8594V9.02958Z" fill="#C70039"/>
<path d="M105.75 42.6221H16.0203V48.0701H23.3012V61.5854H27.6289V48.0701H92.0243V61.5854H96.3521V48.0701H105.75V42.6221Z" fill="#666666"/>
<path d="M285.963 127.323C285.963 127.323 282.713 131.133 280.856 138.753C278.998 146.372 287.356 152.087 284.57 160.183C281.784 168.279 276.676 172.088 278.07 180.184C279.463 188.28 285.499 188.756 280.856 197.804C276.212 206.853 272.033 210.186 273.426 218.758C274.819 227.33 292.464 238.283 292.464 238.283C292.464 238.283 304.537 224.473 305.002 215.425C305.466 206.377 294.322 200.662 296.179 192.566C298.036 184.47 302.68 177.803 302.216 170.184C301.751 162.564 292.929 156.849 292.929 151.135C292.929 145.42 296.643 142.086 296.643 135.419C296.643 128.752 288.285 123.037 288.285 119.228C288.463 116.288 289.09 113.396 290.143 110.656C290.143 110.656 281.32 116.37 285.963 127.323Z" fill="#C70039"/>
<path opacity="0.5" d="M285.963 127.323C285.963 127.323 282.713 131.133 280.856 138.753C278.998 146.372 287.356 152.087 284.57 160.183C281.784 168.279 276.676 172.088 278.07 180.184C279.463 188.28 285.499 188.756 280.856 197.804C276.212 206.853 272.033 210.186 273.426 218.758C274.819 227.33 292.464 238.283 292.464 238.283C292.464 238.283 304.537 224.473 305.002 215.425C305.466 206.377 294.322 200.662 296.179 192.566C298.036 184.47 302.68 177.803 302.216 170.184C301.751 162.564 292.929 156.849 292.929 151.135C292.929 145.42 296.643 142.086 296.643 135.419C296.643 128.752 288.285 123.037 288.285 119.228C288.463 116.288 289.09 113.396 290.143 110.656C290.143 110.656 281.32 116.37 285.963 127.323Z" fill="#F3F3F3"/>
<path d="M290.607 235.427L289.678 132.562" stroke="#263238" stroke-linecap="round" stroke-linejoin="round"/>
<path d="M299.977 211.882L290.876 221.206L280.568 211.882" stroke="#263238" stroke-linecap="round" stroke-linejoin="round"/>
<path d="M296.941 170.822L290.273 181.394L284.505 171.755" stroke="#263238" stroke-linecap="round" stroke-linejoin="round"/>
<path d="M286.02 139.715L289.967 144.686L293.301 138.781" stroke="#263238" stroke-linecap="round" stroke-linejoin="round"/>
<path d="M302.216 235.426H278.998V262.095H302.216V235.426Z" fill="#263238"/>
<path d="M189.352 154.049L198.1 260.723C198.123 260.881 198.177 261.031 198.26 261.166C198.342 261.301 198.451 261.417 198.579 261.506C198.707 261.595 198.852 261.657 199.005 261.686C199.157 261.715 199.314 261.712 199.465 261.676C199.727 261.61 199.957 261.45 200.112 261.224C200.268 260.998 200.338 260.722 200.31 260.447L194.357 154.021L189.352 154.049Z" fill="#263238" stroke="#263238" stroke-linecap="round" stroke-linejoin="round"/>
<path d="M248.073 154.049L256.849 261.085C256.873 261.242 256.928 261.392 257.011 261.526C257.094 261.66 257.203 261.775 257.33 261.864C257.458 261.953 257.603 262.015 257.755 262.045C257.907 262.074 258.063 262.072 258.214 262.038C258.477 261.97 258.707 261.808 258.862 261.58C259.017 261.353 259.087 261.076 259.059 260.799L253.087 154.049H248.073Z" fill="#263238" stroke="#263238" stroke-linecap="round" stroke-linejoin="round"/>
<path d="M95.5254 154.049L90.882 259.771C90.8561 260.048 90.9282 260.325 91.085 260.553C91.2418 260.78 91.4729 260.942 91.7364 261.009C91.8871 261.048 92.0441 261.054 92.1971 261.026C92.3502 260.998 92.4956 260.937 92.6239 260.847C92.7521 260.757 92.8602 260.64 92.9409 260.503C93.0217 260.367 93.0733 260.215 93.0923 260.057L100.522 154.021L95.5254 154.049Z" fill="#263238" stroke="#263238" stroke-linecap="round" stroke-linejoin="round"/>
<path d="M41.4104 154.049L36.7669 259.447C36.7411 259.724 36.8131 260.001 36.9699 260.229C37.1268 260.456 37.3579 260.618 37.6213 260.685C37.772 260.724 37.9291 260.73 38.0821 260.702C38.2351 260.674 38.3806 260.613 38.5088 260.523C38.637 260.433 38.7451 260.315 38.8259 260.179C38.9066 260.043 38.9582 259.891 38.9772 259.733L46.3417 154.011L41.4104 154.049Z" fill="#263238" stroke="#263238" stroke-linecap="round" stroke-linejoin="round"/>
<path d="M259.496 148.134H38.1415V157.297H259.496V148.134Z" fill="#F3F3F3" stroke="#263238" stroke-linecap="round" stroke-linejoin="round"/>
<path d="M259.496 148.134H38.1415V151.277H259.496V148.134Z" fill="#263238" stroke="#263238" stroke-linecap="round" stroke-linejoin="round"/>
<path d="M259.495 148.134H181.643V157.297H259.495V148.134Z" fill="#263238" stroke="#263238" stroke-linecap="round" stroke-linejoin="round"/>
<path d="M262.272 145.087H35.3738V148.582H262.272V145.087Z" fill="#F3F3F3" stroke="#263238" stroke-linecap="round" stroke-linejoin="round"/>
<path d="M262.273 145.087H184.894V148.582H262.273V145.087Z" fill="#263238" stroke="#263238" stroke-linecap="round" stroke-linejoin="round"/>
<path d="M161.509 132.914L168.261 144.839H156.624L161.509 132.914Z" fill="#263238" stroke="#263238" stroke-linecap="round" stroke-linejoin="round"/>
<path d="M90.1018 144.772H156.624C156.876 144.77 157.123 144.694 157.334 144.552C157.544 144.41 157.711 144.209 157.813 143.972L176.229 100.912C176.326 100.708 176.371 100.482 176.358 100.255C176.345 100.028 176.276 99.8083 176.156 99.6169C176.037 99.4256 175.872 99.269 175.676 99.1622C175.481 99.0554 175.262 99.0019 175.04 99.007H108.527C108.275 99.0044 108.028 99.0779 107.816 99.2185C107.605 99.3591 107.439 99.5605 107.338 99.7976L88.9223 142.867C88.8254 143.071 88.781 143.296 88.7933 143.522C88.8056 143.748 88.8741 143.967 88.9924 144.158C89.1107 144.349 89.2748 144.506 89.469 144.613C89.6632 144.721 89.8811 144.776 90.1018 144.772Z" fill="#263238" stroke="#263238" stroke-linecap="round" stroke-linejoin="round"/>
<path d="M94.8938 143.058H152.473C152.707 143.058 152.935 142.989 153.131 142.859C153.328 142.729 153.483 142.543 153.578 142.325L170.443 103.817C170.523 103.629 170.556 103.423 170.54 103.218C170.523 103.013 170.457 102.816 170.347 102.644C170.237 102.472 170.088 102.331 169.912 102.233C169.735 102.135 169.538 102.084 169.338 102.084H111.759C111.524 102.083 111.294 102.153 111.097 102.285C110.901 102.417 110.747 102.605 110.654 102.827L93.798 141.324C93.7156 141.512 93.6804 141.717 93.6956 141.922C93.7108 142.127 93.7759 142.325 93.885 142.498C93.994 142.67 94.1435 142.812 94.3198 142.91C94.496 143.008 94.6934 143.058 94.8938 143.058Z" fill="#F3F3F3" stroke="#263238" stroke-linecap="round" stroke-linejoin="round"/>
<path d="M141.319 121.275C147.526 123.801 153.157 127.614 157.859 132.476L159.308 129.18L160.237 127.142C151.46 125.59 148.414 117.418 140.084 106.026C138.946 104.48 137.569 103.135 136.007 102.045H111.759C111.525 102.047 111.297 102.116 111.099 102.245C110.901 102.376 110.746 102.566 110.654 102.788L104.385 117.075C121.817 124.609 124.473 114.398 141.319 121.275Z" fill="#C70039" stroke="#263238" stroke-linecap="round" stroke-linejoin="round"/>
<path d="M139.62 128.723C126.024 127.419 99.2587 138.305 99.2587 138.305L96.7791 143.067H109.493C119.077 139.258 130.537 135.448 137.502 135.705C144.82 135.943 146.362 139.819 146.585 143.067H148.647C149.687 137.8 148.981 129.628 139.62 128.723Z" fill="#C70039" stroke="#263238" stroke-linecap="round" stroke-linejoin="round"/>
<path d="M167.035 111.58L168.892 107.341C167.908 105.551 166.775 103.703 165.744 102.084H158.054C160.255 104.589 164.044 108.779 167.035 111.58Z" fill="#C70039" stroke="#263238" stroke-linecap="round" stroke-linejoin="round"/>
<path d="M236.037 145.363H254.574V140.486H236.037V145.363Z" fill="#263238"/>
<path d="M245.778 142.153C246.251 142.154 246.706 141.971 247.051 141.64C247.396 141.309 247.605 140.855 247.636 140.372L250.728 94.0641C250.745 93.8139 250.713 93.5629 250.635 93.3253C250.557 93.0877 250.434 92.8683 250.273 92.6794C250.112 92.4906 249.917 92.3361 249.698 92.2248C249.479 92.1135 249.24 92.0475 248.996 92.0306C248.752 92.0137 248.508 92.0463 248.276 92.1264C248.044 92.2065 247.83 92.3327 247.646 92.4976C247.462 92.6625 247.312 92.8631 247.203 93.0877C247.094 93.3124 247.03 93.5568 247.014 93.8069L243.921 140.115C243.888 140.619 244.051 141.116 244.375 141.496C244.699 141.876 245.157 142.109 245.648 142.144L245.778 142.153Z" fill="#263238"/>
<path d="M249.104 96.3307C249.495 96.3314 249.877 96.2052 250.194 95.9703C250.512 95.7353 250.749 95.4035 250.871 95.0222C250.994 94.6409 250.996 94.2297 250.877 93.8472C250.758 93.4647 250.524 93.1305 250.209 92.8924L219.748 70.9099C219.656 70.804 219.543 70.7203 219.416 70.6649C219.289 70.6096 219.151 70.584 219.014 70.59C218.876 70.596 218.741 70.6334 218.619 70.6996C218.497 70.7657 218.391 70.8589 218.308 70.9724C218.226 71.0859 218.169 71.2169 218.142 71.3557C218.115 71.4945 218.119 71.6378 218.152 71.775C218.186 71.9122 218.249 72.04 218.338 72.149C218.426 72.258 218.536 72.3456 218.661 72.4052L247.989 95.9497C248.311 96.197 248.702 96.3307 249.104 96.3307Z" fill="#263238"/>
<path d="M249.103 97.1021C250.678 97.1021 251.954 95.793 251.954 94.1781C251.954 92.5632 250.678 91.2541 249.103 91.2541C247.529 91.2541 246.252 92.5632 246.252 94.1781C246.252 95.793 247.529 97.1021 249.103 97.1021Z" fill="#263238"/>
<path d="M218.68 75.653C220.254 75.653 221.531 74.3439 221.531 72.729C221.531 71.1141 220.254 69.805 218.68 69.805C217.105 69.805 215.829 71.1141 215.829 72.729C215.829 74.3439 217.105 75.653 218.68 75.653Z" fill="#263238"/>
<path d="M206.56 76.739L217.314 85.5872L220.918 76.0628C221.231 75.2356 221.278 74.3274 221.053 73.4706C220.827 72.6139 220.341 71.8536 219.664 71.3005C218.992 70.7451 218.165 70.4243 217.303 70.3849C216.441 70.3455 215.589 70.5896 214.872 71.0815L206.56 76.739Z" fill="#263238"/>
<path d="M198.527 144.772H241.024C241.185 144.772 241.342 144.725 241.478 144.635C241.613 144.545 241.72 144.418 241.786 144.268L253.552 116.751C253.606 116.622 253.627 116.481 253.615 116.34C253.602 116.2 253.556 116.065 253.481 115.948C253.406 115.83 253.304 115.733 253.183 115.666C253.063 115.598 252.928 115.562 252.791 115.561H210.275C210.116 115.561 209.96 115.609 209.826 115.699C209.693 115.789 209.587 115.916 209.523 116.066L197.756 143.582C197.7 143.712 197.677 143.855 197.689 143.997C197.7 144.138 197.747 144.275 197.824 144.394C197.901 144.512 198.005 144.609 198.128 144.675C198.251 144.742 198.388 144.775 198.527 144.772Z" fill="#F3F3F3" stroke="#263238" stroke-linecap="round" stroke-linejoin="round"/>
<path d="M202.511 142.629H238.73C238.869 142.631 239.004 142.59 239.12 142.512C239.236 142.434 239.327 142.322 239.38 142.191L249.419 118.713C249.465 118.604 249.484 118.484 249.474 118.366C249.464 118.247 249.426 118.132 249.362 118.033C249.299 117.933 249.212 117.85 249.111 117.793C249.009 117.736 248.895 117.705 248.778 117.704H212.55C212.413 117.705 212.28 117.746 212.165 117.822C212.05 117.897 211.958 118.005 211.9 118.132L201.861 141.61C201.815 141.721 201.797 141.842 201.807 141.961C201.818 142.081 201.857 142.197 201.921 142.297C201.985 142.398 202.073 142.481 202.176 142.539C202.278 142.597 202.394 142.628 202.511 142.629Z" fill="#F3F3F3" stroke="#263238" stroke-linecap="round" stroke-linejoin="round"/>
<path d="M230.77 129.209C234.877 130.794 238.625 133.221 241.785 136.343L243.336 132.943C237.494 131.99 235.47 126.752 229.916 119.494C229.407 118.833 228.828 118.232 228.189 117.704H212.55C212.413 117.705 212.279 117.746 212.164 117.822C212.049 117.897 211.957 118.005 211.899 118.132L208.008 127.238C218.001 130.609 220.174 125.085 230.77 129.209Z" fill="#C70039" stroke="#263238" stroke-linecap="round" stroke-linejoin="round"/>
<path d="M229.638 133.924C220.583 133.095 202.706 140.029 202.706 140.029L201.777 141.686C201.74 141.794 201.729 141.91 201.744 142.023C201.76 142.136 201.801 142.244 201.866 142.338C201.931 142.431 202.016 142.507 202.116 142.56C202.215 142.612 202.325 142.639 202.437 142.639H210.656C216.785 140.362 223.787 138.238 228.143 138.381C232.684 138.524 233.892 140.667 234.152 142.639H235.647C236.278 139.276 235.628 134.476 229.638 133.924Z" fill="#C70039" stroke="#263238" stroke-linecap="round" stroke-linejoin="round"/>
<path d="M247.701 122.827L248.927 119.97C248.472 119.208 247.998 118.437 247.515 117.713H242.593C244.032 119.246 246.029 121.275 247.701 122.827Z" fill="#C70039" stroke="#263238" stroke-linecap="round" stroke-linejoin="round"/>
<path d="M241.618 142.944H177.77V145.087H241.618V142.944Z" fill="#F3F3F3" stroke="#263238" stroke-linecap="round" stroke-linejoin="round"/>
<path d="M241.618 142.944H210.664V145.087H241.618V142.944Z" fill="#F3F3F3" stroke="#263238" stroke-linecap="round" stroke-linejoin="round"/>
<path d="M183.724 128.066H172.458V145.134H183.724V128.066Z" fill="#F3F3F3" stroke="#263238" stroke-linecap="round" stroke-linejoin="round"/>
<path d="M183.213 142.81H182.042C181.796 142.81 181.56 142.71 181.386 142.531C181.212 142.352 181.114 142.11 181.114 141.858C181.114 141.605 181.212 141.363 181.386 141.184C181.56 141.005 181.796 140.905 182.042 140.905H183.213C183.68 140.903 184.127 140.711 184.458 140.372C184.788 140.033 184.975 139.575 184.977 139.095V134.962C184.977 134.482 184.791 134.022 184.46 133.682C184.129 133.343 183.681 133.152 183.213 133.152H181.708C181.462 133.152 181.226 133.052 181.051 132.873C180.877 132.695 180.779 132.452 180.779 132.2C180.779 131.947 180.877 131.705 181.051 131.526C181.226 131.348 181.462 131.247 181.708 131.247H183.213C184.172 131.25 185.092 131.642 185.771 132.338C186.45 133.034 186.832 133.977 186.834 134.962V139.095C186.832 140.08 186.45 141.023 185.771 141.719C185.092 142.415 184.172 142.807 183.213 142.81Z" fill="#F3F3F3" stroke="#263238" stroke-linecap="round" stroke-linejoin="round"/>
<path d="M106.939 55.8326C106.939 55.8326 109.484 63.938 109.484 65.5095C109.466 66.647 109.382 67.7824 109.233 68.9098L111.49 72.491C111.56 72.6041 111.608 72.7306 111.63 72.8631C111.652 72.9955 111.647 73.1311 111.617 73.2618C111.587 73.3925 111.531 73.5155 111.453 73.6236C111.376 73.7318 111.277 73.8227 111.165 73.8911L107.701 75.9769C107.701 75.9769 107.19 84.3489 106.679 85.3966C106.168 86.4443 97.4943 86.1872 97.4943 86.1872L94.7082 91.6828L80.1649 85.9205L83.9725 75.1959L83.2017 59.0043C83.2017 59.0043 92.1357 50.8608 106.939 55.8326Z" fill="#F3F3F3" stroke="#263238" stroke-linecap="round" stroke-linejoin="round"/>
<path d="M96.7328 75.977L98.7667 76.5009C98.6422 77.4757 98.714 78.4663 98.9775 79.4115C99.2411 80.3568 99.6909 81.2365 100.299 81.9965" fill="#F3F3F3"/>
<path d="M96.7328 75.977L98.7667 76.5009C98.6422 77.4757 98.714 78.4663 98.9775 79.4115C99.2411 80.3568 99.6909 81.2365 100.299 81.9965" stroke="#263238" stroke-linecap="round" stroke-linejoin="round"/>
<path d="M99.0823 70.3766L113.449 66.7287" stroke="#263238" stroke-linecap="round" stroke-linejoin="round"/>
<path d="M109.753 66.4334L113.022 66.5763C113.022 66.5763 114.164 70.3861 110.747 70.8147" stroke="#263238" stroke-linecap="round" stroke-linejoin="round"/>
<path d="M90.0922 49.8415C90.0922 49.8415 84.52 48.0033 81.669 55.861C78.8179 63.7187 83.9721 73.9575 83.9721 75.2242C83.9721 76.491 88.3091 77.5768 91.6246 77.5768C93.4501 77.649 95.2471 77.0961 96.7324 76.0052C96.7324 76.0052 95.4508 70.7763 96.4723 69.7286C97.4939 68.6809 100.048 71.0335 100.048 71.0335C100.849 70.9033 101.624 70.6394 102.342 70.2524C103.103 69.7286 106.939 67.6332 105.657 65.2807C104.376 62.9281 101.831 60.8328 103.874 59.2612C105.917 57.6897 111.304 57.423 111.526 52.4512C111.749 47.4795 108.74 46.4413 105.657 46.9556C102.574 47.4699 103.614 42.5077 97.7446 43.2982C91.8753 44.0887 89.0706 47.4509 90.0922 49.8415Z" fill="#263238" stroke="#263238" stroke-linecap="round" stroke-linejoin="round"/>
<path d="M90.9844 67.6334C90.5773 68.4202 90.2655 69.255 90.0557 70.1193" stroke="#F3F3F3" stroke-width="0.5" stroke-linecap="round" stroke-linejoin="round"/>
<path d="M104.06 58.2802C104.06 58.2802 102.286 59.8803 96.7325 62.1567C94.77 62.9561 93.0806 64.3309 91.8755 66.1094" stroke="#F3F3F3" stroke-width="0.5" stroke-linecap="round" stroke-linejoin="round"/>
<path d="M103.614 62.6048C103.614 62.6048 97.1786 66.9384 94.3275 67.8432" stroke="#F3F3F3" stroke-width="0.5" stroke-linecap="round" stroke-linejoin="round"/>
<path d="M149.91 103.874C152.675 108.309 155.966 112.375 159.707 115.979C159.707 115.979 156.15 107.855 150.876 103.055C150.402 102.636 149.575 103.331 149.91 103.874Z" fill="#263238" stroke="#263238" stroke-linecap="round" stroke-linejoin="round"/>
<path d="M129.404 135.324L148.21 120.799C148.21 120.799 148.21 114.132 149.139 112.703C150.068 111.275 157.729 108.893 157.729 108.893C157.729 108.893 159.819 106.274 160.98 108.893C161.312 109.66 161.443 110.503 161.362 111.338C161.281 112.172 160.989 112.971 160.515 113.656C160.636 115.559 160.636 117.467 160.515 119.37C160.283 120.799 152.157 124.371 152.157 124.371C152.157 124.371 141.013 141.277 135.441 146.039C129.869 150.801 128.708 151.754 126.386 152.706C124.064 153.658 119.885 146.753 119.885 146.753L129.404 135.324Z" fill="#F3F3F3" stroke="#263238" stroke-linecap="round" stroke-linejoin="round"/>
<path d="M95.2747 246.78C95.2747 246.78 108.509 255.352 110.83 255.352C113.152 255.352 114.313 257.495 113.152 257.733C111.991 257.971 104.794 258.209 99.9182 258.447C95.0425 258.685 91.7921 258.209 89.006 258.209C86.2199 258.209 82.9695 258.447 81.5765 257.733C80.1834 257.018 82.5052 248.923 82.5052 247.494C82.5052 246.065 93.6495 245.827 95.2747 246.78Z" fill="#263238" stroke="#263238" stroke-linecap="round" stroke-linejoin="round"/>
<path d="M112.344 255.694C107.208 257.437 98.878 256.294 93.8817 255.827C89.9254 255.456 83.7589 255.37 81.1679 255.351C81.0657 256.58 81.1679 257.504 81.5765 257.732C82.9695 258.447 86.2199 258.209 89.006 258.209C91.7921 258.209 95.0425 258.685 99.9182 258.447C104.794 258.209 111.991 257.97 113.152 257.732C114.016 257.551 113.589 256.313 112.344 255.694Z" fill="#F3F3F3" stroke="#263238" stroke-linecap="round" stroke-linejoin="round"/>
<path d="M105.723 187.947L95.284 241.617L97.4571 247.189C95.8982 249.509 93.5438 251.141 90.8634 251.76C87.8793 252.357 84.8487 252.676 81.8086 252.713C81.8086 252.713 80.6478 246.76 81.3443 246.046C82.0408 245.331 82.273 242.474 82.273 242.474L88.3095 188.423L105.723 187.947Z" fill="#C70039" stroke="#263238" stroke-linecap="round" stroke-linejoin="round"/>
<path d="M137.531 244.96C137.531 244.96 145.657 251.865 149.371 253.056C153.086 254.246 157.033 255.437 157.033 256.627C157.033 257.818 148.211 259.009 141.478 258.294C134.744 257.58 124.529 254.484 122.207 254.484C119.885 254.484 120.35 248.294 120.35 247.341C120.35 246.389 131.726 238.769 137.531 244.96Z" fill="#263238" stroke="#263238" stroke-linecap="round" stroke-linejoin="round"/>
<path d="M157.032 256.627C157.032 256.199 156.512 255.77 155.686 255.342C149.041 256.262 142.304 256.214 135.672 255.199C130.58 254.455 125.528 253.447 120.535 252.179C120.776 253.456 121.259 254.484 122.206 254.484C124.528 254.484 134.744 257.58 141.477 258.294C148.21 259.008 157.032 257.818 157.032 256.627Z" fill="#F3F3F3" stroke="#263238" stroke-linecap="round" stroke-linejoin="round"/>
<path d="M97.1319 163.897C104.095 163.349 111.095 163.508 118.027 164.374C129.868 165.802 147.281 167.469 147.746 170.565C148.21 173.66 136.248 238.093 136.248 239.76C136.248 241.427 138.106 243.094 138.57 244.046C138.864 244.721 139.022 245.45 139.034 246.189C139.034 246.189 133.351 252.475 128.94 254.142C124.528 255.809 120.823 254.256 119.894 254.256C118.965 254.256 118.965 247.827 119.662 244.732C120.358 241.636 121.519 233.779 121.751 233.064C121.984 232.35 125.689 186.518 125.689 186.518C125.689 186.518 100.15 192.233 79.4867 189.852C58.8233 187.471 56.7338 184.137 55.5729 179.137C54.412 174.136 56.7338 164.136 56.7338 164.136L97.1319 163.897Z" fill="#C70039" stroke="#263238" stroke-linecap="round" stroke-linejoin="round"/>
<path d="M94.5129 179.317C94.0457 180.014 93.5239 180.67 92.9527 181.279" stroke="#263238" stroke-linecap="round" stroke-linejoin="round"/>
<path d="M100.847 166.517C99.5056 169.947 97.9547 173.287 96.2035 176.517" stroke="#263238" stroke-linecap="round" stroke-linejoin="round"/>
<path d="M98.0608 168.897C95.2646 173.652 91.0228 177.333 85.9877 179.374" stroke="#263238" stroke-linecap="round" stroke-linejoin="round"/>
<path d="M141.756 182.013C142.536 181.698 143.307 181.375 144.031 181.06L141.756 182.013Z" fill="#F3F3F3"/>
<path d="M141.756 182.013C142.536 181.698 143.307 181.375 144.031 181.06" stroke="#263238" stroke-linecap="round" stroke-linejoin="round"/>
<path d="M125.69 186.518C130.137 185.623 134.53 184.469 138.849 183.061L125.69 186.518Z" fill="#F3F3F3"/>
<path d="M125.69 186.518C130.137 185.623 134.53 184.469 138.849 183.061" stroke="#263238" stroke-linecap="round" stroke-linejoin="round"/>
<path d="M77.6299 84.6061C77.6299 84.6061 59.5203 93.4163 56.9664 95.083C54.4125 96.7498 52.7873 117.466 52.7873 121.037C52.7873 124.609 55.3412 159.611 56.0377 165.564C56.7342 171.517 79.0229 175.565 86.4525 173.422C93.882 171.279 101.079 165.802 101.079 163.897C101.079 161.992 100.383 145.801 100.847 142.705C101.312 139.61 105.491 126.514 105.491 126.514L113.385 149.611C116.698 148.704 119.955 147.591 123.136 146.277C129.869 143.42 131.494 133.895 131.494 133.895C131.494 133.895 124.065 120.561 121.975 113.894C119.885 107.227 118.957 102.226 118.028 101.036C117.099 99.8453 96.2038 89.8446 92.489 87.2254C90.3939 85.6082 87.9528 84.5269 85.3685 84.0714C82.7842 83.6159 80.1312 83.7992 77.6299 84.6061Z" fill="#263238" stroke="#263238" stroke-linecap="round" stroke-linejoin="round"/>
<path d="M105.49 126.514L99.4538 117.465" stroke="#F3F3F3" stroke-width="0.75" stroke-linecap="round" stroke-linejoin="round"/>
<path d="M104.506 125.228L93.8814 119.847" stroke="#F3F3F3" stroke-width="0.75" stroke-linecap="round" stroke-linejoin="round"/>
<path d="M73.0048 193.49L82.2917 261.113C82.3121 261.271 82.3646 261.422 82.4458 261.558C82.5269 261.693 82.6349 261.81 82.7628 261.899C82.8907 261.989 83.0355 262.051 83.188 262.079C83.3404 262.108 83.497 262.103 83.6476 262.066C83.9078 262.001 84.1365 261.842 84.2917 261.618C84.4469 261.394 84.5182 261.12 84.4928 260.847L77.9919 192.385L73.0048 193.49Z" fill="#263238" stroke="#263238" stroke-linecap="round" stroke-linejoin="round"/>
<path d="M46.3604 194.042L30.8605 260.456C30.824 260.611 30.8196 260.771 30.8475 260.928C30.8755 261.084 30.9352 261.233 31.0228 261.364C31.1104 261.495 31.2239 261.606 31.3559 261.689C31.4879 261.772 31.6356 261.826 31.7892 261.847C32.0555 261.885 32.3263 261.823 32.5516 261.673C32.7769 261.522 32.9415 261.293 33.0151 261.028L51.0132 196.585L46.3604 194.042Z" fill="#263238" stroke="#263238" stroke-linecap="round" stroke-linejoin="round"/>
<path d="M74.5095 193.223L64.6468 260.752C64.6233 260.909 64.6318 261.069 64.672 261.222C64.7121 261.375 64.7829 261.518 64.8799 261.642C64.9768 261.766 65.0979 261.867 65.2352 261.94C65.3726 262.013 65.5232 262.056 65.6776 262.066C65.9504 262.082 66.2191 261.993 66.4317 261.817C66.6444 261.641 66.786 261.39 66.8292 261.114L79.3294 195.347L74.5095 193.223Z" fill="#263238" stroke="#263238" stroke-linecap="round" stroke-linejoin="round"/>
<path d="M101.172 193.49L110.459 261.113C110.48 261.27 110.534 261.421 110.615 261.556C110.697 261.69 110.805 261.806 110.932 261.896C111.06 261.985 111.204 262.047 111.356 262.076C111.508 262.105 111.664 262.102 111.815 262.066C112.076 262.001 112.305 261.842 112.462 261.619C112.619 261.395 112.692 261.121 112.669 260.847L106.168 192.385L101.172 193.49Z" fill="#263238" stroke="#263238" stroke-linecap="round" stroke-linejoin="round"/>
<path d="M31.8077 146.106C31.8077 146.106 29.0216 134.038 29.3373 127.371C29.6531 120.704 35.5224 112.132 51.9325 113.084C68.3425 114.037 77.0072 130.229 75.7721 143.249C74.5369 156.268 75.7721 181.661 84.4368 187.061C93.1015 192.462 112.604 188.652 112.604 188.652C112.604 188.652 115.39 189.28 113.226 191.509C111.062 193.738 93.1015 196.9 84.1303 198.176C77.2766 199.129 59.9843 198.633 52.1647 198.338C48.1034 198.234 44.246 196.492 41.4289 193.49C40.2942 192.243 39.3543 190.823 38.6429 189.28C34.0737 179.489 31.8077 146.106 31.8077 146.106Z" fill="#F3F3F3"/>
<mask id="mask0_124_1134" style="mask-type:luminance" maskUnits="userSpaceOnUse" x="29" y="113" width="86" height="86">
<path d="M31.8077 146.106C31.8077 146.106 29.0216 134.038 29.3373 127.371C29.6531 120.704 35.5224 112.132 51.9325 113.084C68.3425 114.037 77.0072 130.229 75.7721 143.249C74.5369 156.268 75.7721 181.661 84.4368 187.061C93.1015 192.462 112.604 188.652 112.604 188.652C112.604 188.652 115.39 189.28 113.226 191.509C111.062 193.738 93.1015 196.9 84.1303 198.176C77.2766 199.129 59.9843 198.633 52.1647 198.338C48.1034 198.234 44.246 196.492 41.4289 193.49C40.2942 192.243 39.3543 190.823 38.6429 189.28C34.0737 179.489 31.8077 146.106 31.8077 146.106Z" fill="white"/>
</mask>
<g mask="url(#mask0_124_1134)">
<path d="M84.1304 198.176C86.3221 197.861 89.0617 197.433 91.9778 196.938C88.4685 196.752 85.0248 195.889 81.8272 194.394C72.1409 189.194 70.7572 164.726 72.1409 152.182C73.5247 139.638 63.8291 124.047 45.4782 123.123C38.6523 122.78 33.4051 123.713 29.5975 125.352C29.4535 126.016 29.3664 126.691 29.3375 127.371C29.0217 134.038 31.8078 146.105 31.8078 146.105C31.8078 146.105 34.0738 179.489 38.6244 189.28C39.3359 190.822 40.2757 192.242 41.4105 193.49C44.2275 196.492 48.085 198.234 52.1462 198.338C59.9843 198.633 77.2766 199.138 84.1304 198.176Z" fill="#C70039"/>
<path opacity="0.5" d="M84.1304 198.176C86.3221 197.861 89.0617 197.433 91.9778 196.938C88.4685 196.752 85.0248 195.889 81.8272 194.394C72.1409 189.194 70.7572 164.726 72.1409 152.182C73.5247 139.638 63.8291 124.047 45.4782 123.123C38.6523 122.78 33.4051 123.713 29.5975 125.352C29.4535 126.016 29.3664 126.691 29.3375 127.371C29.0217 134.038 31.8078 146.105 31.8078 146.105C31.8078 146.105 34.0738 179.489 38.6244 189.28C39.3359 190.822 40.2757 192.242 41.4105 193.49C44.2275 196.492 48.085 198.234 52.1462 198.338C59.9843 198.633 77.2766 199.138 84.1304 198.176Z" fill="#F3F3F3"/>
</g>
<path d="M31.8077 146.106C31.8077 146.106 29.0216 134.038 29.3373 127.371C29.6531 120.704 35.5224 112.132 51.9325 113.084C68.3425 114.037 77.0072 130.229 75.7721 143.249C74.5369 156.268 75.7721 181.661 84.4368 187.061C93.1015 192.461 112.604 188.652 112.604 188.652C112.604 188.652 115.39 189.28 113.226 191.509C111.062 193.738 93.1015 196.9 84.1303 198.176C77.2766 199.129 59.9843 198.633 52.1647 198.338C48.1034 198.234 44.246 196.492 41.4289 193.49C40.2942 192.243 39.3543 190.823 38.6429 189.28C34.0737 179.489 31.8077 146.106 31.8077 146.106Z" stroke="#263238" stroke-linecap="round" stroke-linejoin="round"/>
<path d="M320 258.799H0V264H320V258.799Z" fill="#263238"/>
</svg>
