<svg width="50" height="50" viewBox="0 0 50 50" fill="none" xmlns="http://www.w3.org/2000/svg">
<path d="M10.3453 35.8618C10.2934 35.9789 10.109 36.0141 9.94102 35.934C9.76915 35.8575 9.67344 35.6977 9.72891 35.5801C9.77969 35.459 9.96446 35.4258 10.1352 35.5067C10.307 35.5836 10.4047 35.745 10.3449 35.8621L10.3453 35.8618ZM11.3008 36.9278C11.1887 37.0321 10.9688 36.9836 10.8195 36.8184C10.6649 36.6543 10.6359 36.4344 10.7504 36.3286C10.8668 36.2246 11.0801 36.2739 11.2348 36.4379C11.3887 36.6043 11.4191 36.8223 11.3012 36.9282L11.3008 36.9278ZM12.2313 38.286C12.0867 38.3868 11.85 38.2926 11.7039 38.0829C11.5594 37.8727 11.5594 37.6207 11.7078 37.5204C11.8535 37.4196 12.0867 37.5106 12.2352 37.7184C12.3789 37.9313 12.3789 38.1836 12.2313 38.286ZM13.5051 39.5989C13.3762 39.7414 13.1004 39.7032 12.8988 39.509C12.693 39.3188 12.6356 39.0481 12.7649 38.9059C12.8961 38.7629 13.1731 38.8028 13.3758 38.9957C13.5816 39.1856 13.6438 39.4567 13.5059 39.5985L13.5051 39.5989ZM15.2629 40.361C15.2055 40.5457 14.9406 40.6297 14.6731 40.5508C14.4063 40.47 14.2316 40.2539 14.2863 40.0672C14.341 39.8809 14.6078 39.7938 14.877 39.8778C15.1438 39.9582 15.3184 40.1731 15.2629 40.361ZM17.1938 40.502C17.2004 40.6965 16.9738 40.8575 16.6938 40.8614C16.4113 40.868 16.1828 40.7102 16.1801 40.5188C16.1801 40.3223 16.402 40.1633 16.684 40.1579C16.9641 40.1528 17.1941 40.309 17.1941 40.5016L17.1938 40.502ZM18.9899 40.1965C19.0234 40.386 18.8285 40.5809 18.55 40.6329C18.2766 40.6836 18.0227 40.5657 17.9875 40.3778C17.9539 40.1832 18.1523 39.9883 18.4258 39.9379C18.7047 39.8899 18.9547 40.0039 18.9899 40.1965Z" fill="#F3F3F3"/>
<path fill-rule="evenodd" clip-rule="evenodd" d="M25 1.99341C11.9738 1.99341 1.41095 12.554 1.41095 25.5825C1.41095 36.0051 8.16993 44.8469 17.5426 47.9665C18.7211 48.1852 19.1539 47.4547 19.1539 46.8317C19.1539 46.2692 19.132 44.411 19.1219 42.4399C12.5594 43.8668 11.1746 39.6567 11.1746 39.6567C10.1016 36.9301 8.55548 36.2051 8.55548 36.2051C6.41486 34.7411 8.71681 34.7715 8.71681 34.7715C11.0852 34.9375 12.3328 37.2024 12.3328 37.2024C14.4367 40.8079 17.8512 39.7657 19.1973 39.1633C19.409 37.6387 20.0203 36.5977 20.6949 36.0086C15.4555 35.4129 9.94728 33.3899 9.94728 24.3512C9.94728 21.7758 10.8692 19.6715 12.3781 18.0192C12.1328 17.4254 11.3254 15.0262 12.6063 11.777C12.6063 11.777 14.5867 11.143 19.0945 14.195C20.9766 13.6719 22.9949 13.409 25 13.4C27.0039 13.409 29.0234 13.6711 30.909 14.1942C35.4113 11.1422 37.3895 11.7762 37.3895 11.7762C38.6735 15.025 37.866 17.4247 37.6211 18.0184C39.1336 19.6707 40.0488 21.775 40.0488 24.3504C40.0488 33.4106 34.5305 35.4051 29.2777 35.9895C30.1242 36.7215 30.8781 38.1575 30.8781 40.3579C30.8781 43.5141 30.8508 46.0543 30.8508 46.8313C30.8508 47.459 31.2758 48.1946 32.4711 47.9629C41.8383 44.8403 48.5895 36.0012 48.5895 25.5825C48.5891 12.5547 38.0274 1.99341 25 1.99341Z" fill="#F3F3F3"/>
</svg>
