<svg width="41" height="40" viewBox="0 0 41 40" fill="none" xmlns="http://www.w3.org/2000/svg">
<path d="M6.44907 35.5863L3.32251 0.519073H37.6775L34.5475 35.581L20.4791 39.4809L6.44907 35.5863Z" fill="#E44D26"/>
<path d="M20.5 36.5L31.8681 33.3481L34.5428 3.38626H20.5V36.5Z" fill="#F16529"/>
<path d="M20.5 16.3922H14.8088L14.4156 11.9878H20.5V7.68719H9.71533L9.81846 8.84094L10.8753 20.6931H20.5V16.3922ZM20.5 27.5619L20.481 27.5672L15.6913 26.2734L15.3853 22.8438H11.0675L11.67 29.5966L20.4803 32.0422L20.5 32.0369V27.5619Z" fill="#EBEBEB"/>
<path d="M20.485 16.3922V20.6931H25.7809L25.2819 26.2709L20.485 27.5656V32.0403L29.3022 29.5966L29.3669 28.87L30.3775 17.5472L30.4822 16.3922H29.3234H20.485ZM20.485 7.68719V11.9878H30.8737L30.96 11.0216L31.1562 8.84094L31.259 7.68719H20.485Z" fill="white"/>
</svg>
