<svg width="41" height="40" viewBox="0 0 41 40" fill="none" xmlns="http://www.w3.org/2000/svg">
<g clip-path="url(#clip0_109_280)">
<path d="M0.940002 0.440002H40.06V39.5603H0.940002V0.440002Z" fill="#F0DB4F"/>
<path d="M36.8584 30.23C36.5719 28.4453 35.4081 26.9462 31.9609 25.5484C30.7634 24.9981 29.4284 24.6041 29.0306 23.6966C28.8894 23.1684 28.8706 22.8709 28.96 22.5512C29.2166 21.5137 30.455 21.1903 31.4366 21.4878C32.0687 21.6997 32.6672 22.1869 33.0281 22.9641C34.7162 21.8709 34.7128 21.8781 35.8916 21.1269C35.46 20.4578 35.2297 20.1491 34.9472 19.8628C33.9319 18.7287 32.5484 18.1447 30.3359 18.1894L29.1834 18.3384C28.0791 18.6175 27.0266 19.1972 26.4094 19.9744C24.5575 22.0756 25.0856 25.7531 27.3391 27.2666C29.5591 28.9328 32.8203 29.3119 33.2369 30.87C33.6422 32.7775 31.835 33.395 30.0387 33.1756C28.715 32.9003 27.9787 32.2275 27.1828 31.0041C25.7178 31.8519 25.7178 31.8519 24.2116 32.7181C24.5687 33.4991 24.9441 33.8525 25.5428 34.5291C28.3766 37.4034 35.4678 37.2622 36.7397 32.9116C36.7912 32.7622 37.1337 31.7659 36.8584 30.23ZM22.2069 18.4197H18.5478L18.5328 27.8797C18.5328 29.8916 18.6369 31.7359 18.3097 32.3012C17.7744 33.4131 16.3872 33.2753 15.755 33.0597C15.1116 32.7434 14.7844 32.2937 14.4053 31.6581C14.3012 31.4756 14.2231 31.3344 14.1969 31.3234L11.2219 33.1453C11.7166 34.1606 12.4453 35.0419 13.3787 35.6144C14.7731 36.4512 16.6472 36.7078 18.6072 36.2578C19.8828 35.8862 20.9834 35.1166 21.5597 33.945C22.3928 32.4091 22.2141 30.55 22.2066 28.4937C22.2253 25.1391 22.2069 21.785 22.2069 18.4197Z" fill="#323330"/>
</g>
<defs>
<clipPath id="clip0_109_280">
<rect width="40" height="40" fill="white" transform="translate(0.5)"/>
</clipPath>
</defs>
</svg>
