<svg width="60" height="60" viewBox="0 0 60 60" fill="none" xmlns="http://www.w3.org/2000/svg">
<g id="Logo" clip-path="url(#clip0_207_232)">
<path id="Vector" d="M52.9251 29.28C52.9251 36.5955 52.9251 43.851 52.9251 51.1255C38.5036 51.1255 24.129 51.1255 9.71104 51.1255C9.71104 50.289 9.71104 49.4738 9.71104 48.6289C8.91031 48.6289 8.15243 48.6289 7.35501 48.6289C7.35501 35.453 7.35501 22.3074 7.35501 9.13348C21.7192 9.13348 36.0907 9.13348 50.5092 9.13348C50.5092 9.94526 50.5092 10.7568 50.5092 11.6128C51.3275 11.6128 52.0999 11.6128 52.9251 11.6128C52.9251 17.5118 52.9251 23.3659 52.9251 29.28ZM10.0849 35.34C10.0849 39.6489 10.0849 43.9578 10.0849 48.2581C23.4846 48.2581 36.796 48.2581 50.111 48.2581C50.111 36.1427 50.111 24.0582 50.111 11.9819C36.7554 11.9819 23.4439 11.9819 10.0849 11.9819C10.0849 19.7485 10.0849 27.4842 10.0849 35.34ZM19.98 9.43098C15.8923 9.43098 11.8047 9.43098 7.71479 9.43098C7.71479 22.4268 7.71479 35.3368 7.71479 48.248C8.39071 48.248 9.03606 48.248 9.73716 48.248C9.73716 36.0209 9.73716 23.8348 9.73716 11.5955C23.2401 11.5955 36.6861 11.5955 50.1219 11.5955C50.1219 10.8483 50.1219 10.155 50.1219 9.43097C40.0925 9.43097 30.0963 9.43097 19.98 9.43098ZM50.5247 18.06C50.5247 28.2351 50.5247 38.4102 50.5247 48.629C37.0282 48.629 23.5763 48.629 10.1106 48.629C10.1106 49.3667 10.1106 50.0605 10.1106 50.7774C24.2607 50.7774 38.3849 50.7774 52.5119 50.7774C52.5119 37.8214 52.5119 24.8975 52.5119 11.9814C51.8359 11.9814 51.2037 11.9814 50.5247 11.9814C50.5247 13.988 50.5247 15.964 50.5247 18.06Z" fill="#F3F3F3"/>
<path id="Vector_2" d="M38.1286 22.0447C38.5177 21.3202 38.862 20.6204 39.2677 19.9582C39.3834 19.7693 39.6673 19.6033 39.8915 19.5774C40.3837 19.5204 40.887 19.5597 41.4161 19.5597C41.4161 26.281 41.4161 32.9719 41.4161 39.6915C40.5729 39.6915 39.7426 39.6915 38.854 39.6915C38.854 34.2817 38.854 28.8787 38.854 23.4756C38.8088 23.4574 38.7637 23.4391 38.7185 23.4208C38.6182 23.5921 38.5133 23.7609 38.4182 23.9351C35.5789 29.1351 32.7428 34.3369 29.8937 39.5316C29.7765 39.7454 29.5374 40.0334 29.3569 40.032C29.1741 40.0307 28.9353 39.7438 28.8208 39.5288C26.0457 34.3178 23.2839 29.0996 20.5192 23.8831C20.4182 23.6925 20.3106 23.5055 20.1154 23.1531C20.1154 28.7709 20.1154 34.2074 20.1154 39.6821C19.6669 39.6821 19.2788 39.6821 18.857 39.6821C18.857 32.9955 18.857 26.3086 18.857 19.5599C19.4145 19.5599 19.9731 19.519 20.5196 19.5825C20.7063 19.6042 20.9184 19.8579 21.0248 20.056C23.911 25.4342 26.7848 30.819 29.6615 36.2022C29.7804 36.4247 29.9072 36.6429 30.0837 36.9584C32.7909 31.9395 35.449 27.0117 38.1286 22.0447Z" fill="#F3F3F3"/>
</g>
<defs>
<clipPath id="clip0_207_232">
<rect width="60" height="60" fill="white"/>
</clipPath>
</defs>
</svg>
