<svg width="60" height="60" viewBox="0 0 60 60" fill="none" xmlns="http://www.w3.org/2000/svg">
<path d="M50 47.1571C50 48.7286 49.108 50 48.01 50H31.99C31.4622 50 30.9561 49.7005 30.5829 49.1673C30.2097 48.6342 30 47.9111 30 47.1571C30 46.4032 30.2097 45.6801 30.5829 45.1469C30.9561 44.6138 31.4622 44.3143 31.99 44.3143H48.01C49.11 44.3143 50 45.5857 50 47.1571ZM50 30C50 31.5714 49.108 32.8429 48.01 32.8429H11.99C11.4622 32.8429 10.9561 32.5433 10.5829 32.0102C10.2097 31.4771 10 30.754 10 30C10 29.246 10.2097 28.5229 10.5829 27.9898C10.9561 27.4567 11.4622 27.1571 11.99 27.1571H48.01C49.11 27.1571 50 28.4314 50 30ZM48.01 15.6857C48.5378 15.6857 49.0439 15.3862 49.4171 14.8531C49.7903 14.3199 50 13.5968 50 12.8429C50 12.0889 49.7903 11.3658 49.4171 10.8327C49.0439 10.2995 48.5378 10 48.01 10H23.99C23.7287 10 23.4699 10.0735 23.2285 10.2164C22.987 10.3593 22.7676 10.5687 22.5829 10.8327C22.3981 11.0966 22.2515 11.41 22.1515 11.7549C22.0515 12.0999 22 12.4695 22 12.8429C22 13.2162 22.0515 13.5859 22.1515 13.9308C22.2515 14.2757 22.3981 14.5891 22.5829 14.8531C22.7676 15.117 22.987 15.3264 23.2285 15.4693C23.4699 15.6122 23.7287 15.6857 23.99 15.6857H48.01Z" fill="#C70039"/>
</svg>
