<svg width="50" height="50" viewBox="0 0 50 50" fill="none" xmlns="http://www.w3.org/2000/svg">
<g clip-path="url(#clip0_127_1563)">
<path d="M13.5119 41.6122H13.0399L10.6834 38.9429V38.4082L14.2858 34.3277H16.7815L17.1143 34.7046V37.5316L13.5119 41.6122ZM10.6834 11.4221V10.8874L13.0399 8.21814H13.5119L17.1143 12.2987V15.1257L16.7815 15.5027H14.2858L10.6834 11.4221Z" fill="#05BDBA"/>
<path d="M31.4269 33.0084H27.9988L27.7125 32.6841V23.5936C27.7125 21.9763 27.1514 20.7228 25.4295 20.679C24.5434 20.6527 23.5297 20.679 22.4463 20.7272L22.2836 20.9157V32.6796L21.9973 33.004H18.5691L18.2828 32.6796V17.1509L18.5691 16.8263H26.2846C29.2834 16.8263 31.7133 19.5788 31.7133 22.9757V32.6841L31.4269 33.0084Z" fill="#F3F3F3"/>
<path d="M13.9994 27.1878H0.286328L0 26.8635V22.9712L0.286328 22.6469H13.9994L14.2857 22.9712V26.8635L13.9994 27.1878ZM49.7137 27.1878H36.0006L35.7143 26.8635V22.9712L36.0006 22.6469H49.7137L50 22.9712V26.8635L49.7137 27.1878ZM23.0227 11.9743V0.324336L23.309 0H26.7451L27.0314 0.324336V11.9743L26.7451 12.2987H23.309L23.0227 11.9743ZM23.0227 49.5104V37.8604L23.309 37.5361H26.7451L27.0314 37.8604V49.5104L26.7451 49.8345H23.309L23.0227 49.5104Z" fill="#05BDBA"/>
</g>
<defs>
<clipPath id="clip0_127_1563">
<rect width="50" height="50" fill="white"/>
</clipPath>
</defs>
</svg>
