<svg width="50" height="50" viewBox="0 0 50 50" fill="none" xmlns="http://www.w3.org/2000/svg">
<path d="M49.2191 0.784361C48.854 0.419256 48.391 0.16749 47.8861 0.0593713C47.3812 -0.0487471 46.8558 -0.00860815 46.3731 0.174956L1.72598 17.0742H1.71706C1.20227 17.2722 0.761153 17.6243 0.453953 18.0824C0.146752 18.5405 -0.0115535 19.0823 0.000656755 19.6337C0.012867 20.1851 0.194998 20.7193 0.522174 21.1634C0.84935 21.6074 1.30562 21.9396 1.82867 22.1147L1.87443 22.1292L17.1984 28.673C17.4973 28.7638 17.8147 28.7745 18.1191 28.7042C18.4234 28.6339 18.704 28.485 18.9328 28.2723L43.5271 5.3549C43.6003 5.28161 43.6873 5.22348 43.7831 5.18382C43.8788 5.14416 43.9815 5.12374 44.0851 5.12374C44.1888 5.12374 44.2914 5.14416 44.3871 5.18382C44.4829 5.22348 44.5699 5.28161 44.6432 5.3549C44.7164 5.42818 44.7746 5.51519 44.8142 5.61094C44.8539 5.70669 44.8743 5.80932 44.8743 5.91296C44.8743 6.0166 44.8539 6.11923 44.8142 6.21498C44.7746 6.31074 44.7164 6.39774 44.6432 6.47102L21.7253 31.0548C21.5126 31.2836 21.3637 31.5642 21.2934 31.8686C21.2231 32.1729 21.2339 32.4904 21.3246 32.7893L27.8705 48.1226C27.8772 48.145 27.8839 48.165 27.8917 48.1862C28.2488 49.2209 29.1529 49.9508 30.2455 50H30.3572C30.9088 50.0031 31.4486 49.8402 31.9064 49.5325C32.3642 49.2248 32.7188 48.7864 32.9242 48.2744L49.8207 3.6383C50.0069 3.15533 50.0492 2.62876 49.9424 2.12227C49.8356 1.61579 49.5844 1.15108 49.2191 0.784361Z" fill="#F3F3F3"/>
</svg>
